<svg id="圖層_1" data-name="圖層 1" xmlns="http://www.w3.org/2000/svg" viewBox="0 0 120 27.06"><defs><style>.cls-1{fill:#cc002c;}</style></defs><title>logo</title><path d="M399.91,302.71v7.8h-.62a9.71,9.71,0,0,0-1.07-3.57,5.58,5.58,0,0,0-2.2-2.11,6.09,6.09,0,0,0-3-.78,4,4,0,0,0-2.86,1.06,3.21,3.21,0,0,0-1.13,2.4,2.85,2.85,0,0,0,.72,1.88,18.37,18.37,0,0,0,4.9,3.32,34,34,0,0,1,4.31,2.6,6.35,6.35,0,0,1,1.78,2.14,5.63,5.63,0,0,1,.62,2.58,5.83,5.83,0,0,1-2,4.41,7.19,7.19,0,0,1-5.11,1.85,10.83,10.83,0,0,1-1.85-.15,18.83,18.83,0,0,1-2.14-.61,9.58,9.58,0,0,0-2.05-.52.87.87,0,0,0-.66.25,2,2,0,0,0-.36,1h-.62v-7.73h.62a10.93,10.93,0,0,0,1.16,3.63,5.59,5.59,0,0,0,2.24,2,6.93,6.93,0,0,0,3.3.8,4.69,4.69,0,0,0,3.28-1.1,3.4,3.4,0,0,0,1.21-2.59,3.52,3.52,0,0,0-.46-1.68,5,5,0,0,0-1.42-1.58,40.73,40.73,0,0,0-3.54-2.12,34.28,34.28,0,0,1-4.12-2.59,7,7,0,0,1-1.85-2.13,5.28,5.28,0,0,1-.63-2.56,5.55,5.55,0,0,1,1.86-4.18,6.63,6.63,0,0,1,4.74-1.75,9.5,9.5,0,0,1,3.81.88,3.91,3.91,0,0,0,1.31.42,1,1,0,0,0,.71-.26,2.06,2.06,0,0,0,.44-1Z" transform="translate(-352.44 -300.97)"/><path d="M418.82,318.22h-8.73l-1.53,3.56a5.64,5.64,0,0,0-.57,2,1.14,1.14,0,0,0,.49.91,4.28,4.28,0,0,0,2.12.51v.62h-7.1v-.62a3.83,3.83,0,0,0,1.83-.65,10.2,10.2,0,0,0,1.88-3.24l7.93-18.55h.58l7.85,18.75a8.55,8.55,0,0,0,1.72,2.93,3.51,3.51,0,0,0,2.15.76v.62h-8.89v-.62a3.33,3.33,0,0,0,1.82-.45,1.16,1.16,0,0,0,.47-.93,6.89,6.89,0,0,0-.66-2.31Zm-.47-1.23-3.82-9.11L410.6,317Z" transform="translate(-352.44 -300.97)"/><path d="M438,313.26l8.31,8.26a15.18,15.18,0,0,0,3.49,2.78,7.45,7.45,0,0,0,2.89.84v.62H442v-.62a2.32,2.32,0,0,0,1.39-.32.92.92,0,0,0,.42-.72,1.58,1.58,0,0,0-.16-.71,6.37,6.37,0,0,0-1-1.18l-7.78-7.7v7.27A7.46,7.46,0,0,0,435,324a1.49,1.49,0,0,0,.7.71,3.06,3.06,0,0,0,1.51.4H438v.62h-9.61v-.62h.8a2.41,2.41,0,0,0,2-.81,5.06,5.06,0,0,0,.4-2.56V307.21a7.66,7.66,0,0,0-.22-2.28,1.52,1.52,0,0,0-.68-.7,3.15,3.15,0,0,0-1.53-.4h-.8v-.62H438v.62h-.76a3.23,3.23,0,0,0-1.51.38,1.44,1.44,0,0,0-.72.8,7.6,7.6,0,0,0-.2,2.19v6.9l2.28-2.11a50,50,0,0,0,6-6,2.18,2.18,0,0,0,.45-1.16.86.86,0,0,0-.35-.67,1.86,1.86,0,0,0-1.18-.29h-.52v-.62h8.28v.62a4.92,4.92,0,0,0-1.33.2,6.81,6.81,0,0,0-1.46.71,14.33,14.33,0,0,0-2.13,1.69q-.37.33-3.38,3.41Z" transform="translate(-352.44 -300.97)"/><path d="M459.53,304.45v8.91h5a4,4,0,0,0,2.58-.58,3.75,3.75,0,0,0,1-2.69h.62v7.85H468a8.6,8.6,0,0,0-.47-2.11,2.08,2.08,0,0,0-1-.91,5,5,0,0,0-2.09-.33h-5V322a6.87,6.87,0,0,0,.13,1.82,1,1,0,0,0,.47.52,2.82,2.82,0,0,0,1.26.19h3.82a10.36,10.36,0,0,0,2.78-.27,4.14,4.14,0,0,0,1.66-1,12.8,12.8,0,0,0,2.11-3.11h.66l-1.95,5.65H453.12v-.62h.8a3.16,3.16,0,0,0,1.51-.38,1.4,1.4,0,0,0,.72-.8,7.83,7.83,0,0,0,.19-2.18V307.14a4.85,4.85,0,0,0-.43-2.64,2.58,2.58,0,0,0-2-.66h-.8v-.62h17.37l.25,4.94h-.65a7.8,7.8,0,0,0-.77-2.44,2.66,2.66,0,0,0-1.26-1,7.53,7.53,0,0,0-2.34-.25Z" transform="translate(-352.44 -300.97)"/><circle class="cls-1" cx="13.53" cy="13.53" r="13.53"/></svg>